HIERARCHY
ROOT hip
{
  OFFSET 0 0 0
  CHANNELS 6 Xposition Yposition Zposition Zrotation Yrotation Xrotation
  JOINT abdomen
  {
    OFFSET 0 20.6881 -0.73152
    CHANNELS 3 Zrotation Xrotation Yrotation
    JOINT chest
    {
      OFFSET 0 11.7043 -0.48768
      CHANNELS 3 Zrotation Xrotation Yrotation
      JOINT neck
      {
        OFFSET 0 22.1894 -2.19456
        CHANNELS 3 Zrotation Xrotation Yrotation
        JOINT head
        {
          OFFSET -0.24384 7.07133 1.2192
          CHANNELS 3 Zrotation Xrotation Yrotation
          JOINT leftEye
          {
            OFFSET 4.14528 8.04674 8.04672
            CHANNELS 3 Zrotation Xrotation Yrotation
            End Site
            {
              OFFSET 1 0 0
            }
          }
          JOINT rightEye
          {
            OFFSET -3.6576 8.04674 8.04672
            CHANNELS 3 Zrotation Xrotation Yrotation
            End Site
            {
              OFFSET 1 0 0
            }
          }
        }
      }
      JOINT rCollar
      {
        OFFSET -2.68224 19.2634 -4.8768
        CHANNELS 3 Zrotation Xrotation Yrotation
        JOINT rShldr
        {
          OFFSET -8.77824 -1.95073 1.46304
          CHANNELS 3 Zrotation Xrotation Yrotation
          JOINT rForeArm
          {
            OFFSET -28.1742 -1.7115 0.48768
            CHANNELS 3 Zrotation Xrotation Yrotation
            JOINT rHand
            {
              OFFSET -22.5879 0.773209 7.07136
              CHANNELS 3 Zrotation Xrotation Yrotation
              JOINT rThumb1
              {
                OFFSET -1.2192 -0.487915 3.41376
                CHANNELS 3 Zrotation Xrotation Yrotation
                JOINT rThumb2
                {
                  OFFSET -3.37035 -0.52449 3.41376
                  CHANNELS 3 Zrotation Xrotation Yrotation
                  End Site
                  {
                    OFFSET -1.78271 -1.18214 1.43049
                  }
                }
              }
              JOINT rIndex1
              {
                OFFSET -7.75947 0.938293 5.60832
                CHANNELS 3 Zrotation Xrotation Yrotation
                JOINT rIndex2
                {
                  OFFSET -2.54057 -0.884171 1.56538
                  CHANNELS 3 Zrotation Xrotation Yrotation
                  End Site
                  {
                    OFFSET -1.62519 -0.234802 1.16502
                  }
                }
              }
              JOINT rMid1
              {
                OFFSET -8.24714 1.18213 3.41376
                CHANNELS 3 Zrotation Xrotation Yrotation
                JOINT rMid2
                {
                  OFFSET -3.10165 -0.590103 1.0647
                  CHANNELS 3 Zrotation Xrotation Yrotation
                  End Site
                  {
                    OFFSET -2.48547 -0.328903 0.83742
                  }
                }
              }
              JOINT rRing1
              {
                OFFSET -8.82822 0.546677 1.51678
                CHANNELS 3 Zrotation Xrotation Yrotation
                JOINT rRing2
                {
                  OFFSET -2.60934 -0.819778 -0.0198488
                  CHANNELS 3 Zrotation Xrotation Yrotation
                  End Site
                  {
                    OFFSET -2.33842 -0.294052 0.168128
                  }
                }
              }
              JOINT rPinky1
              {
                OFFSET -8.27202 -0.0477905 -0.4584
                CHANNELS 3 Zrotation Xrotation Yrotation
                JOINT rPinky2
                {
                  OFFSET -1.82734 -0.647385 -0.700984
                  CHANNELS 3 Zrotation Xrotation Yrotation
                  End Site
                  {
                    OFFSET -1.69225 -0.51767 -0.607171
                  }
                }
              }
            }
          }
        }
      }
      JOINT lCollar
      {
        OFFSET 2.68224 19.2634 -4.8768
        CHANNELS 3 Zrotation Xrotation Yrotation
        JOINT lShldr
        {
          OFFSET 8.77824 -1.95073 1.46304
          CHANNELS 3 Zrotation Xrotation Yrotation
          JOINT lForeArm
          {
            OFFSET 28.1742 -1.7115 0.48768
            CHANNELS 3 Zrotation Xrotation Yrotation
            JOINT lHand
            {
              OFFSET 22.5879 0.773209 7.07136
              CHANNELS 3 Zrotation Xrotation Yrotation
              JOINT lThumb1
              {
                OFFSET 1.2192 -0.487915 3.41376
                CHANNELS 3 Zrotation Xrotation Yrotation
                JOINT lThumb2
                {
                  OFFSET 3.37035 -0.52449 3.41376
                  CHANNELS 3 Zrotation Xrotation Yrotation
                  End Site
                  {
                    OFFSET 1.78271 -1.18214 1.43049
                  }
                }
              }
              JOINT lIndex1
              {
                OFFSET 7.75947 0.938293 5.60832
                CHANNELS 3 Zrotation Xrotation Yrotation
                JOINT lIndex2
                {
                  OFFSET 2.54057 -0.884171 1.56538
                  CHANNELS 3 Zrotation Xrotation Yrotation
                  End Site
                  {
                    OFFSET 1.62519 -0.234802 1.16502
                  }
                }
              }
              JOINT lMid1
              {
                OFFSET 8.24714 1.18213 3.41376
                CHANNELS 3 Zrotation Xrotation Yrotation
                JOINT lMid2
                {
                  OFFSET 3.10165 -0.590103 1.0647
                  CHANNELS 3 Zrotation Xrotation Yrotation
                  End Site
                  {
                    OFFSET 2.48547 -0.328903 0.83742
                  }
                }
              }
              JOINT lRing1
              {
                OFFSET 8.82822 0.546677 1.51678
                CHANNELS 3 Zrotation Xrotation Yrotation
                JOINT lRing2
                {
                  OFFSET 2.60934 -0.819778 -0.0198488
                  CHANNELS 3 Zrotation Xrotation Yrotation
                  End Site
                  {
                    OFFSET 2.33842 -0.294052 0.168128
                  }
                }
              }
              JOINT lPinky1
              {
                OFFSET 8.27202 -0.0477905 -0.4584
                CHANNELS 3 Zrotation Xrotation Yrotation
                JOINT lPinky2
                {
                  OFFSET 1.82734 -0.647385 -0.700984
                  CHANNELS 3 Zrotation Xrotation Yrotation
                  End Site
                  {
                    OFFSET 1.69225 -0.51767 -0.607171
                  }
                }
              }
            }
          }
        }
      }
    }
  }
  JOINT rButtock
  {
    OFFSET -8.77824 4.35084 1.2192
    CHANNELS 3 Zrotation Xrotation Yrotation
    JOINT rThigh
    {
      OFFSET 0 -1.70687 -2.19456
      CHANNELS 3 Zrotation Xrotation Yrotation
      JOINT rShin
      {
        OFFSET 0 -36.8199 0.73152
        CHANNELS 3 Zrotation Xrotation Yrotation
        JOINT rFoot
        {
          OFFSET 0.73152 -45.1104 -5.12064
          CHANNELS 3 Zrotation Xrotation Yrotation
          End Site
          {
            OFFSET -1.1221 -3.69964 12.103
          }
        }
      }
    }
  }
  JOINT lButtock
  {
    OFFSET 8.77824 4.35084 1.2192
    CHANNELS 3 Zrotation Xrotation Yrotation
    JOINT lThigh
    {
      OFFSET 0 -1.70687 -2.19456
      CHANNELS 3 Zrotation Xrotation Yrotation
      JOINT lShin
      {
        OFFSET 0 -36.8199 0.73152
        CHANNELS 3 Zrotation Xrotation Yrotation
        JOINT lFoot
        {
          OFFSET -0.73152 -45.1104 -5.12064
          CHANNELS 3 Zrotation Xrotation Yrotation
          End Site
          {
            OFFSET 1.1221 -3.69964 12.103
          }
        }
      }
    }
  }
}
MOTION
Frames:	4
Frame Time:	0.03333
-3.957978083919676 40.17112581093177 -17.715975408553703 -3.4826700687408447 -1.5606666803359985 5.64509391784668 -3.069401979446411 2.5092010498046875 -1.41506826877594 4.9074249267578125 -5.534985065460205 -0.5820972323417664 -10.967398643493652 15.39589786529541 -13.587167739868164 16.087711334228516 -7.617130756378174 -25.965126037597656 -0.19844411313533783 -0.47796759009361267 0.05492798238992691 0.11751452088356018 0.14034110307693481 0.16388846933841705 -0.20949889719486237 0.16758523881435394 -0.3037170171737671 72.22270202636719 41.281063079833984 -3.2313222885131836 -17.369050979614258 -9.995787620544434 32.30655288696289 -0.3121890723705292 -2.041494131088257 0.017589958384633064 0.07464107125997543 0.17411071062088013 0.12994986772537231 -0.2840289771556854 -0.044797420501708984 0.056596897542476654 0.18211500346660614 -0.1744251251220703 0.4162258207798004 7.876917839050293 5.33433723449707 0.3936103582382202 -0.32938849925994873 0.4978046417236328 0.13143976032733917 3.0502569675445557 0.8566399216651917 0.3275928497314453 -0.326431006193161 -0.11794132739305496 0.01987392082810402 9.981924057006836 1.1141672134399414 0.19992485642433167 -0.05330201983451843 0.11663853377103806 -0.08775470405817032 2.3704373836517334 -0.9014956951141357 -0.5456200242042542 -0.040749430656433105 -0.028811948373913765 0.2814789116382599 -77.90817260742188 32.08102035522461 -5.710400581359863 12.544116020202637 -5.492004871368408 -22.478322982788086 1.2547695636749268 28.784021377563477 -4.133564472198486 -0.07904700934886932 0.15942923724651337 0.18020133674144745 0.23087790608406067 0.6047303676605225 0.1754106879234314 -0.1484210342168808 0.13869871199131012 -0.0066519021056592464 -7.611639022827148 5.5503621101379395 -0.3960142731666565 -0.29759687185287476 -0.23228369653224945 -0.11473667621612549 -2.59891414642334 1.1161023378372192 -0.3430938422679901 -0.008661212399601936 -0.19684432446956635 -0.15461865067481995 -10.054920196533203 0.7726412415504456 -0.14086224138736725 0.3541375398635864 0.15172035992145538 0.3253970444202423 -2.2073912620544434 -0.42132192850112915 0.10137196630239487 -0.2763817608356476 0.09015380591154099 0.049258384853601456 -9.150933265686035 -23.68657875061035 7.922993183135986 -0.26233339309692383 34.019561767578125 1.0222876071929932 -2.4578988552093506 -8.562318801879883 -14.270216941833496 -0.5503058433532715 0.09226757287979126 -0.28455275297164917 8.247052192687988 -18.873504638671875 -3.0858421325683594 0.4714663624763489 33.20370101928711 -0.7202818393707275 2.437995433807373 -8.900030136108398 15.49793529510498
-3.9158985691036965 40.15671752687763 -18.00395347287778 -3.600203275680542 -1.6001614332199097 5.598250865936279 -2.94083571434021 2.4833221435546875 -1.4098902940750122 4.923459053039551 -5.498945236206055 -0.5795049667358398 -10.98523235321045 15.38945198059082 -13.618927955627441 16.16777229309082 -7.328006267547607 -26.0279598236084 -0.1973402500152588 -0.457729309797287 0.0473540835082531 0.127683624625206 0.14281430840492249 0.16140328347682953 -0.2236579954624176 0.1565219610929489 -0.30597859621047974 72.09820556640625 41.12349319458008 -3.2744698524475098 -17.458759307861328 -10.123740196228027 32.51417922973633 -0.31070438027381897 -2.224149465560913 -0.017596712335944176 0.06703577190637589 0.16027528047561646 0.11971133202314377 -0.29030635952949524 -0.045652296394109726 0.06577250361442566 0.18910372257232666 -0.18746955692768097 0.42544132471084595 7.888378143310547 5.321326732635498 0.3924248516559601 -0.3320305049419403 0.49791163206100464 0.12755465507507324 3.0666255950927734 0.8552752137184143 0.32587578892707825 -0.3271373212337494 -0.1311955600976944 0.028805486857891083 9.973275184631348 1.1049668788909912 0.19799275696277618 -0.07414116710424423 0.11238215118646622 -0.08882011473178864 2.363703489303589 -0.904788076877594 -0.5549759268760681 -0.031082652509212494 -0.03923376649618149 0.29233187437057495 -77.82278442382812 32.08572006225586 -5.806585311889648 12.636067390441895 -5.631795406341553 -22.684818267822266 1.2462289333343506 28.551218032836914 -4.107869625091553 -0.08281046897172928 0.15279808640480042 0.17863015830516815 0.2186456322669983 0.6037861108779907 0.16895325481891632 -0.1278647780418396 0.15186743438243866 -0.02003658376634121 -7.605072975158691 5.575923442840576 -0.38868194818496704 -0.2897704541683197 -0.2387009561061859 -0.11405085027217865 -2.599365711212158 1.1147090196609497 -0.35586774349212646 -0.021729396656155586 -0.1857428103685379 -0.14097437262535095 -10.053116798400879 0.7713457345962524 -0.15120425820350647 0.35647091269493103 0.1548522263765335 0.32013511657714844 -2.213754177093506 -0.4015967845916748 0.10267486423254013 -0.2720043361186981 0.09023206681013107 0.0488874614238739 -9.10584831237793 -23.468547821044922 7.817746162414551 -0.2758001387119293 34.02043533325195 1.0485767126083374 -2.5329394340515137 -8.733510971069336 -14.374197006225586 -0.547808825969696 0.10589853674173355 -0.2881435453891754 8.382989883422852 -19.23407554626465 -2.992767572402954 0.47613972425460815 33.505043029785156 -0.6991444826126099 2.3517026901245117 -8.876206398010254 15.264643669128418
-3.864926574875184 40.214808285768584 -18.29010905063222 -3.3705368041992188 -1.4797985553741455 5.539072036743164 -3.264320135116577 2.3945655822753906 -1.6492466926574707 5.076888084411621 -5.452487945556641 -0.61542809009552 -11.122982025146484 15.461536407470703 -13.937477111816406 16.330657958984375 -7.010212421417236 -26.514869689941406 -0.19943100214004517 -0.4259721636772156 0.05163479223847389 0.16418948769569397 0.1492081880569458 0.17406485974788666 -0.2131265103816986 0.1497361660003662 -0.29620832204818726 71.79010772705078 40.72465133666992 -2.8642969131469727 -17.214130401611328 -9.684887886047363 32.07500076293945 -0.27103668451309204 -1.8258315324783325 0.03973830118775368 0.049755632877349854 0.13712705671787262 0.1096193715929985 -0.26569315791130066 -0.024483878165483475 0.09745782613754272 0.18852047622203827 -0.2028968185186386 0.427116721868515 7.9031877517700195 5.325867176055908 0.388584703207016 -0.3261411488056183 0.4748433232307434 0.1391684114933014 3.072234630584717 0.8661975860595703 0.31918060779571533 -0.3207088112831116 -0.12052422761917114 0.06394528597593307 9.961307525634766 1.0660178661346436 0.18932786583900452 -0.0765199214220047 0.08220753818750381 -0.09105049818754196 2.3554961681365967 -0.9332066774368286 -0.5345883965492249 -0.020510682836174965 -0.008276998065412045 0.28683239221572876 -78.0390625 32.23552322387695 -5.388984203338623 12.663389205932617 -5.554624080657959 -22.68309783935547 1.252914547920227 28.35293197631836 -4.079457759857178 -0.06378117948770523 0.1478225141763687 0.18679703772068024 0.2051721066236496 0.5902072787284851 0.15295229852199554 -0.10298043489456177 0.16626852750778198 -0.0014504427090287209 -7.5973615646362305 5.620513916015625 -0.35327449440956116 -0.2826615571975708 -0.23225921392440796 -0.09900359064340591 -2.563880443572998 1.1010427474975586 -0.3540661931037903 -0.030467690899968147 -0.16472944617271423 -0.147941455245018 -10.08068561553955 0.7620206475257874 -0.162496879696846 0.33297550678253174 0.15082858502864838 0.3139955997467041 -2.2084298133850098 -0.38485318422317505 0.11549877375364304 -0.2645595967769623 0.1017531082034111 0.0617048516869545 -9.233572959899902 -23.965890884399414 7.7845540046691895 -0.2813175320625305 34.22883987426758 1.0608278512954712 -2.390026569366455 -8.530891418457031 -13.977058410644531 -0.5504292845726013 0.1141151413321495 -0.30032917857170105 7.8274102210998535 -18.582714080810547 -3.3106281757354736 0.4183940589427948 33.019248962402344 -0.6836584210395813 2.580209493637085 -9.032797813415527 15.868513107299805
-3.8241311356231673 40.23536032498115 -18.568055914943074 -3.1426966190338135 -1.518898606300354 5.504054546356201 -3.606179714202881 2.306485414505005 -1.8474503755569458 5.206097602844238 -5.41057014465332 -0.6537560820579529 -11.239372253417969 15.529932975769043 -14.133479118347168 16.51085662841797 -6.682161331176758 -26.878454208374023 -0.1872752606868744 -0.4079897999763489 0.05284674093127251 0.1912817507982254 0.14527663588523865 0.17352688312530518 -0.20549993216991425 0.15992628037929535 -0.29445338249206543 71.67866516113281 40.515289306640625 -2.676826238632202 -17.00527000427246 -9.346390724182129 31.650602340698242 -0.2577590048313141 -1.6385012865066528 0.04599698632955551 0.026657158508896828 0.11171266436576843 0.09481259435415268 -0.243264302611351 -0.007595497649163008 0.12397930771112442 0.18624795973300934 -0.19888052344322205 0.41695916652679443 7.912886619567871 5.325750350952148 0.3891138434410095 -0.3338078260421753 0.4456484913825989 0.1534864604473114 3.0623090267181396 0.8767364025115967 0.3153289556503296 -0.3320677578449249 -0.10415050387382507 0.07088834792375565 9.95297908782959 1.0514299869537354 0.18172213435173035 -0.07987815886735916 0.05353401228785515 -0.10274367779493332 2.3465659618377686 -0.9299759864807129 -0.5387938022613525 -0.021670490503311157 0.019587434828281403 0.26919031143188477 -78.10591125488281 32.11582946777344 -5.228610038757324 12.600388526916504 -5.390553951263428 -22.535476684570312 1.2407958507537842 28.440670013427734 -4.092719554901123 -0.03496520221233368 0.15732067823410034 0.18370281159877777 0.19808329641819 0.5800578594207764 0.12154689431190491 -0.10819730907678604 0.1720956265926361 0.007803192362189293 -7.577976703643799 5.656481742858887 -0.3292345404624939 -0.28862109780311584 -0.22998419404029846 -0.0969584658741951 -2.5529403686523438 1.0898630619049072 -0.3612528145313263 -0.026522193104028702 -0.1397886425256729 -0.15290062129497528 -10.097098350524902 0.7421194911003113 -0.17192032933235168 0.33381763100624084 0.15551678836345673 0.30793917179107666 -2.178276777267456 -0.3797597885131836 0.11243277788162231 -0.26353394985198975 0.08873971551656723 0.07853607833385468 -9.404040336608887 -24.44766616821289 7.776491165161133 -0.28891974687576294 34.47604751586914 1.0668798685073853 -2.2225873470306396 -8.345518112182617 -13.48348331451416 -0.5577061772346497 0.11460061371326447 -0.3158854842185974 7.343014717102051 -17.830602645874023 -3.542465925216675 0.3947046995162964 32.4813232421875 -0.6956552863121033 2.8052117824554443 -9.203171730041504 16.514711380004883
